<?xml version="1.0" encoding="UTF-8"?>
<!DOCTYPE svg PUBLIC "-//W3C//DTD SVG 1.1//EN" "http://www.w3.org/Graphics/SVG/1.1/DTD/svg11.dtd">
<!-- Creator: CorelDRAW X6 -->
<svg xmlns="http://www.w3.org/2000/svg" xml:space="preserve" width="300mm" height="200mm" version="1.1" style="shape-rendering:geometricPrecision; text-rendering:geometricPrecision; image-rendering:optimizeQuality; fill-rule:evenodd; clip-rule:evenodd"
viewBox="0 0 30000 20000"
 xmlns:xlink="http://www.w3.org/1999/xlink"
 sodipodi:docbase="/media/UDISK/Insignias RKKA"
 sodipodi:version="0.32"
 inkscape:output_extension="org.inkscape.output.svg.inkscape"
 xmlns:dc="http://purl.org/dc/elements/1.1/"
 xmlns:cc="http://creativecommons.org/ns#"
 xmlns:rdf="http://www.w3.org/1999/02/22-rdf-syntax-ns#"
 xmlns:svg="http://www.w3.org/2000/svg"
 xmlns:sodipodi="http://sodipodi.sourceforge.net/DTD/sodipodi-0.dtd"
 xmlns:inkscape="http://www.inkscape.org/namespaces/inkscape"
 inkscape:version="0.48.4 r9939"
 sodipodi:docname="Flag_of_the_Soviet_Air_Force.svg">
 <defs>
  <style type="text/css">
   <![CDATA[
    .str0 {stroke:#2B2A29;stroke-width:75;stroke-linecap:round;stroke-linejoin:round}
    .fil4 {fill:none}
    .fil0 {fill:#0F37A8}
    .fil5 {fill:#2B2A29}
    .fil3 {fill:#EBECEC}
    .fil1 {fill:#FFED00}
    .fil2 {fill:#E31E24;fill-rule:nonzero}
   ]]>
  </style>
 </defs>
 <g id="Слой_x0020_1">
  <metadata id="CorelCorpID_0Corel-Layer"/>
  <sodipodi:namedview id="base" pagecolor="#ffffff" bordercolor="#666666" borderopacity="1.0" inkscape:pageopacity="0.0" inkscape:pageshadow="2" inkscape:zoom="0.0875" inkscape:cx="2442.6846" inkscape:cy="1910.521" inkscape:document-units="px" inkscape:current-layer="layer3" showgrid="false" inkscape:window-width="988" inkscape:window-height="576" inkscape:window-x="-4" inkscape:window-y="-4" inkscape:window-maximized="1" fit-margin-top="0" fit-margin-left="0" fit-margin-right="0" fit-margin-bottom="0"/>
  <g id="layer1" inkscape:label="SRM" inkscape:groupmode="layer" sodipodi:insensitive="true">
  </g>
  <g id="layer1-2" inkscape:label="SRM">
  </g>
  <g id="layer6" inkscape:label="laureles">
  </g>
  <g id="layer5" inkscape:label="Capa">
  </g>
  <sodipodi:namedview id="base" pagecolor="#ffffff" bordercolor="#666666" borderopacity="1.0" inkscape:pageopacity="0.0" inkscape:pageshadow="2" inkscape:zoom="0.24748737" inkscape:cx="382.52247" inkscape:cy="610.28371" inkscape:document-units="px" inkscape:current-layer="layer1" inkscape:window-width="1024" inkscape:window-height="693" inkscape:window-x="0" inkscape:window-y="25"/>
  <sodipodi:namedview pagecolor="#ffffff" bordercolor="#666666" borderopacity="1" objecttolerance="10" gridtolerance="10" guidetolerance="10" inkscape:pageopacity="0" inkscape:pageshadow="2" inkscape:window-width="1600" inkscape:window-height="848" id="namedview12" showgrid="false" inkscape:zoom="0.5" inkscape:cx="211.07249" inkscape:cy="401.6365" inkscape:window-x="-8" inkscape:window-y="-8" inkscape:window-maximized="1" inkscape:current-layer="svg2"/>
  <sodipodi:namedview inkscape:window-height="1003" inkscape:window-width="1280" inkscape:pageshadow="2" inkscape:pageopacity="0.0" guidetolerance="10.0" gridtolerance="10.0" objecttolerance="10.0" borderopacity="1.0" bordercolor="#666666" pagecolor="#ffffff" id="base" showgrid="false" inkscape:zoom="0.50430108" inkscape:cx="377.47817" inkscape:cy="353.02278" inkscape:window-x="0" inkscape:window-y="0" inkscape:current-layer="svg2" inkscape:showpageshadow="false" width="1052.36px"/>
  <sodipodi:namedview id="base" pagecolor="#ffffff" bordercolor="#666666" borderopacity="1.0" inkscape:pageopacity="0.0" inkscape:pageshadow="2" inkscape:zoom="0.763014" inkscape:cx="1376.6757" inkscape:cy="528.0971" inkscape:document-units="px" inkscape:current-layer="layer1" showgrid="false" fit-margin-top="0" fit-margin-left="0" fit-margin-right="0" fit-margin-bottom="0" inkscape:window-width="1920" inkscape:window-height="1096" inkscape:window-x="-8" inkscape:window-y="-8" inkscape:window-maximized="1"/>
  <sodipodi:namedview id="base" pagecolor="#ffffff" bordercolor="#666666" borderopacity="1.0" inkscape:pageopacity="0.0" inkscape:pageshadow="2" inkscape:zoom="0.763014" inkscape:cx="1376.6757" inkscape:cy="528.0971" inkscape:document-units="px" inkscape:current-layer="layer1" showgrid="false" fit-margin-top="0" fit-margin-left="0" fit-margin-right="0" fit-margin-bottom="0" inkscape:window-width="1920" inkscape:window-height="1096" inkscape:window-x="-8" inkscape:window-y="-8" inkscape:window-maximized="1"/>
  <polygon class="fil0" points="0,0 30000,0 30000,20000 0,20000 "/>
  <polygon class="fil1" points="0,4936 0,7376 14928,9183 "/>
  <polygon class="fil1" points="30000,4936 30000,7376 15072,9183 "/>
  <polygon class="fil1" points="27520,0 30000,0 30000,1374 15206,9032 "/>
  <polygon class="fil1" points="2480,0 0,0 0,1374 14794,9032 "/>
  <polygon class="fil1" points="2480,20000 0,20000 0,18404 14794,9508 "/>
  <polygon class="fil1" points="30000,14266 30000,11432 15072,9333 "/>
  <polygon class="fil1" points="27520,20000 30000,20000 30000,18404 15206,9508 "/>
  <polygon class="fil1" points="15000,20000 16115,20000 15070,9751 20634,20000 23295,20000 15059,9644 15048,9534 15089,9457 15046,9512 15000,9066 15000,9570 15000,9570 15000,9570 15000,9066 14954,9512 14911,9457 14952,9534 14941,9644 6705,20000 9366,20000 14930,9751 13885,20000 15000,20000 15000,9622 15000,9622 15000,9622 "/>
  <polygon class="fil1" points="15000,0 16115,0 15070,8823 20634,0 23295,0 15059,8915 15048,9010 15089,9076 15046,9028 15000,9412 15000,8979 15000,8979 15000,8979 15000,9412 14954,9028 14911,9076 14952,9010 14941,8915 6705,0 9366,0 14930,8823 13885,0 15000,0 15000,8934 15000,8934 15000,8934 "/>
  <circle class="fil1" cx="15003" cy="9006" r="2725"/>
  <polygon class="fil1" points="0,14266 0,11432 14928,9333 "/>
  <g id="_294865600">
   <polygon class="fil2" points="15011,9768 14102,10318 13785,10509 13861,10147 14082,9081 13378,8487 13100,8252 13462,8204 14447,8075 14843,7174 14991,6839 15139,7175 15534,8075 16537,8212 16900,8262 16619,8496 15913,9085 16101,10157 16101,10157 16101,10157 16171,10531 15854,10322 "/>
   <path class="fil1" d="M14409 9280c-79,60 -204,120 -270,225 -44,72 1,142 87,115 93,-34 193,-197 241,-280 24,15 73,10 94,-8 24,-21 40,-67 18,-103l22 -71c109,184 410,231 643,145l375 314 87 -131 -310 -268c47,-38 53,-44 113,-141 90,-190 85,-890 -468,-1043 465,338 379,865 285,988 -94,123 -45,54 -69,76l-445 -384 205 -205 -95 -97 -201 46 -380 385 179 177 175 -175 411 342c-132,41 -298,14 -534,-77l-72 65c-30,-9 -58,-5 -82,14 -20,21 -23,61 -9,91z"/>
  </g>
  <g id="_300279712">
   <g>
    <path class="fil3 str0" d="M15602 12520c-10,113 -221,197 -343,197 -122,0 -269,-51 -259,-280 9,-197 -4,-1431 9,-1547 0,0 534,43 538,149l55 1481z"/>
    <path class="fil3 str0" d="M16082 12562c0,83 -122,196 -247,205 -121,12 -310,-50 -320,-298 -10,-187 -13,-1254 0,-1397l320 21 247 1469z"/>
    <path class="fil3 str0" d="M16671 12571c-13,146 -144,301 -247,310 -99,11 -333,-60 -400,-278 -64,-217 -243,-1046 -211,-1460l202 0 656 1428z"/>
    <path class="fil3 str0" d="M17269 12448c13,176 -32,465 -531,236 -503,-227 -746,-1219 -736,-1499l246 -42 1021 1305z"/>
    <path class="fil3 str0" d="M17814 12252c-42,331 -320,360 -532,268 -211,-92 -890,-900 -1034,-1344l410 -104 1156 1180z"/>
    <path class="fil3 str0" d="M18303 11993c23,372 -160,587 -643,247 -445,-313 -912,-870 -1034,-1085l323 -116 1354 954z"/>
    <path class="fil3 str0" d="M18915 11733c-32,289 -416,403 -743,248 -454,-212 -947,-641 -1181,-930l291 -176 1633 858z"/>
    <path class="fil3 str0" d="M19638 11411c-76,313 -502,436 -966,322 -522,-128 -1201,-673 -1367,-816l256 -209 2077 703z"/>
    <path class="fil3 str0" d="M20260 11051c0,259 -401,456 -932,393 -535,-62 -1470,-548 -1713,-694l356 -289 2289 590z"/>
    <path class="fil3 str0" d="M20929 10687c-23,188 -413,403 -801,426 -547,30 -1645,-250 -2212,-518l455 -331 2558 423z"/>
    <path class="fil3 str0" d="M21851 10005c9,217 -100,632 -922,724 -823,92 -2280,-268 -2568,-372l378 -310 3112 -42z"/>
    <path class="fil3 str0" d="M19350 9469c621,20 1732,38 2132,0 401,-42 1201,-230 1403,-334 0,0 454,-176 256,188 0,0 -212,226 -468,393 -256,164 -630,316 -989,393 -864,188 -2068,105 -2859,9l525 -649z"/>
    <path class="fil3 str0" d="M15614 11703c-35,93 -134,155 -224,155 -86,0 -230,-41 -221,-208 7,-116 -95,-731 71,-712l253 29 121 736z"/>
    <path class="fil3 str0" d="M15902 11703c0,102 -99,155 -211,155 -112,0 -211,-74 -211,-146 0,-71 35,-652 45,-733l301 72 76 652z"/>
    <path class="fil3 str0" d="M16127 11650c22,92 -36,167 -112,188 -77,20 -189,-54 -202,-146 -10,-93 -10,-570 0,-632l202 12 112 578z"/>
    <path class="fil3 str0" d="M16482 11486c45,101 -45,247 -167,268 -124,21 -211,-30 -233,-167 -23,-134 -67,-360 -67,-485l256 -72 211 456z"/>
    <path class="fil3 str0" d="M16860 11352c22,80 -13,205 -112,247 -100,42 -221,-12 -311,-92 -90,-84 -202,-313 -224,-426l279 -84 368 355z"/>
    <path class="fil3 str0" d="M17215 11164c32,92 10,227 -90,280 -99,51 -243,30 -323,-41 -77,-72 -253,-343 -298,-444l298 -117 413 322z"/>
    <path class="fil3 str0" d="M17449 10959c67,101 9,363 -234,277 -301,-105 -435,-319 -477,-432l234 -158 477 313z"/>
    <path class="fil3 str0" d="M17759 10762c67,80 67,319 -198,277 -269,-42 -480,-164 -602,-352l243 -164 557 239z"/>
    <path class="fil3 str0" d="M18159 10574c13,146 -22,280 -288,280 -269,0 -544,-188 -669,-280l269 -197 688 197z"/>
    <path class="fil3 str0" d="M18515 10336c22,134 -77,271 -256,280 -176,9 -634,-125 -788,-218l266 -205 778 143z"/>
    <path class="fil4 str0" d="M18515 10336c22,134 -77,271 -256,280 -176,9 -634,-125 -788,-218l266 -205"/>
    <path class="fil3 str0" d="M19203 9880c112,322 -291,491 -522,530 -256,39 -634,9 -922,-158l400 -411 1044 39z"/>
    <path class="fil3 str0" d="M17337 10532c0,75 -32,134 -122,167 -90,30 -288,30 -400,-21 -112,-53 -167,-83 -167,-83l324 -155 365 92z"/>
    <path class="fil3 str0" d="M17414 10327c57,62 67,185 -10,226 -77,42 -279,33 -346,-9 -67,-41 -198,-113 -198,-113l243 -158 311 54z"/>
    <path class="fil3 str0" d="M17836 10151c67,83 35,217 -54,259 -90,39 -324,39 -445,9 -122,-30 -256,-62 -346,-104l346 -268 499 104z"/>
    <path class="fil3 str0" d="M18047 9820c144,30 144,218 112,289 -32,72 -233,164 -489,125 -256,-41 -410,-95 -554,-166l355 -269 576 21z"/>
    <path class="fil3 str0" d="M15009 10890c516,89 1178,204 1217,-191 162,-1652 1489,-1369 2977,-1326 314,12 800,-9 1012,-30 0,0 -10,248 -176,361 -167,116 -500,197 -711,197 -211,0 -1290,-51 -1434,-51 -144,0 -378,42 -490,134 -112,92 -288,230 -378,456 -89,226 -168,416 -266,548 -362,490 -1360,485 -1740,250 -8,-5 0,-348 -11,-348z"/>
   </g>
   <g>
    <path class="fil3 str0" d="M14398 12520c10,113 221,197 343,197 122,0 269,-51 259,-280 -9,-197 4,-1431 -9,-1547 0,0 -534,43 -538,149l-55 1481z"/>
    <path class="fil3 str0" d="M13918 12562c0,83 122,196 247,205 121,12 310,-50 320,-298 10,-187 13,-1254 0,-1397l-320 21 -247 1469z"/>
    <path class="fil3 str0" d="M13329 12571c13,146 144,301 247,310 99,11 333,-60 400,-278 64,-217 243,-1046 211,-1460l-201 0 -657 1428z"/>
    <path class="fil3 str0" d="M12731 12448c-13,176 32,465 531,236 503,-227 746,-1219 736,-1499l-246 -42 -1021 1305z"/>
    <path class="fil3 str0" d="M12186 12252c42,331 320,360 532,268 211,-92 890,-900 1034,-1344l-410 -104 -1156 1180z"/>
    <path class="fil3 str0" d="M11697 11993c-23,372 160,587 643,247 445,-313 912,-870 1034,-1085l-323 -116 -1354 954z"/>
    <path class="fil3 str0" d="M11085 11733c32,289 416,403 743,248 454,-212 947,-641 1181,-930l-291 -176 -1633 858z"/>
    <path class="fil3 str0" d="M10362 11411c76,313 502,436 966,322 522,-128 1201,-673 1367,-816l-256 -209 -2077 703z"/>
    <path class="fil3 str0" d="M9740 11051c0,259 401,456 932,393 535,-62 1470,-548 1713,-694l-356 -289 -2289 590z"/>
    <path class="fil3 str0" d="M9071 10687c23,188 413,403 801,426 547,30 1645,-250 2212,-518l-455 -331 -2558 423z"/>
    <path class="fil3 str0" d="M8149 10005c-9,217 100,632 922,724 823,92 2280,-268 2568,-372l-378 -310 -3112 -42z"/>
    <path class="fil3 str0" d="M10650 9469c-621,20 -1732,38 -2132,0 -401,-42 -1201,-230 -1403,-334 0,0 -454,-176 -256,188 0,0 212,226 468,393 256,164 630,316 989,393 864,188 2068,105 2859,9l-525 -649z"/>
    <path class="fil3 str0" d="M14386 11703c35,93 134,155 224,155 86,0 230,-41 221,-208 -7,-116 95,-731 -71,-712l-253 29 -121 736z"/>
    <path class="fil3 str0" d="M14098 11703c0,102 99,155 211,155 112,0 211,-74 211,-146 0,-71 -35,-652 -45,-733l-301 72 -76 652z"/>
    <path class="fil3 str0" d="M13873 11650c-22,92 36,167 113,188 76,20 188,-54 201,-146 10,-93 10,-570 0,-632l-201 12 -113 578z"/>
    <path class="fil3 str0" d="M13518 11486c-45,101 45,247 167,268 124,21 211,-30 233,-167 23,-134 68,-360 68,-485l-257 -72 -211 456z"/>
    <path class="fil3 str0" d="M13140 11352c-22,80 13,205 112,247 100,42 221,-12 311,-92 90,-84 202,-313 224,-426l-279 -84 -368 355z"/>
    <path class="fil3 str0" d="M12785 11164c-32,92 -10,227 90,280 99,51 243,30 323,-41 77,-72 253,-343 298,-444l-298 -117 -413 322z"/>
    <path class="fil3 str0" d="M12551 10959c-67,101 -9,363 234,277 301,-105 435,-319 477,-432l-234 -158 -477 313z"/>
    <path class="fil3 str0" d="M12241 10762c-67,80 -67,319 198,277 269,-42 480,-164 602,-352l-243 -164 -557 239z"/>
    <path class="fil3 str0" d="M11841 10574c-13,146 22,280 288,280 269,0 544,-188 669,-280l-269 -197 -688 197z"/>
    <path class="fil3 str0" d="M11485 10336c-22,134 77,271 256,280 176,9 634,-125 788,-218l-266 -205 -778 143z"/>
    <path class="fil4 str0" d="M11485 10336c-22,134 77,271 256,280 176,9 634,-125 788,-218l-266 -205"/>
    <path class="fil3 str0" d="M10797 9880c-112,322 291,491 522,530 256,39 634,9 922,-158l-400 -411 -1044 39z"/>
    <path class="fil3 str0" d="M12663 10532c0,75 32,134 122,167 90,30 288,30 400,-21 112,-53 167,-83 167,-83l-324 -155 -365 92z"/>
    <path class="fil3 str0" d="M12587 10327c-58,62 -68,185 9,226 77,42 279,33 346,-9 67,-41 198,-113 198,-113l-243 -158 -310 54z"/>
    <path class="fil3 str0" d="M12164 10151c-67,83 -35,217 54,259 90,39 324,39 445,9 122,-30 256,-62 346,-104l-346 -268 -499 104z"/>
    <path class="fil3 str0" d="M11953 9820c-144,30 -144,218 -112,289 32,72 233,164 489,125 257,-41 410,-95 554,-166l-355 -269 -576 21z"/>
    <path class="fil3 str0" d="M14991 10890c-516,89 -1178,204 -1217,-191 -162,-1652 -1489,-1369 -2977,-1326 -314,12 -800,-9 -1012,-30 0,0 10,248 176,361 167,116 500,197 711,197 211,0 1290,-51 1434,-51 144,0 378,42 490,134 112,92 288,230 378,456 90,226 168,416 266,548 362,490 1360,485 1740,250 8,-5 0,-348 11,-348z"/>
   </g>
  </g>
  <g id="_300278968">
   <path class="fil5" d="M13820 13180c-1175,211 -2351,190 -2672,-255 315,-450 1491,-488 2668,-293 854,121 1686,136 2538,3 1109,-200 2219,-180 2523,242 -298,426 -1408,462 -2520,277 -857,-122 -1681,-107 -2537,26z"/>
   <circle class="fil5" transform="matrix(-8.86799E-014 -3.3601 3.3601 -8.86799E-014 14982.1 12890.7)" r="196"/>
   <circle class="fil1" transform="matrix(-6.28877E-014 -2.38364 2.38368 -6.28866E-014 14982.1 12890.7)" r="196"/>
  </g>
 </g>
</svg>
