<?xml version="1.0" encoding="UTF-8"?>
<!DOCTYPE svg PUBLIC "-//W3C//DTD SVG 1.1//EN" "http://www.w3.org/Graphics/SVG/1.1/DTD/svg11.dtd">
<svg xmlns="http://www.w3.org/2000/svg" version="1.1" width="2991px" height="851px" style="shape-rendering:geometricPrecision; text-rendering:geometricPrecision; image-rendering:optimizeQuality; fill-rule:evenodd; clip-rule:evenodd" xmlns:xlink="http://www.w3.org/1999/xlink">
<g><path style="opacity:1" fill="#f9faf9" d="M 2823.5,-0.5 C 2825.83,-0.5 2828.17,-0.5 2830.5,-0.5C 2845.61,0.776305 2860.78,2.77631 2876,5.5C 2880.08,5.31382 2884.08,4.64715 2888,3.5C 2890.52,4.50692 2893.02,5.67358 2895.5,7C 2919.49,6.52415 2943.49,6.52415 2967.5,7C 2975.39,7.02638 2983.06,8.19305 2990.5,10.5C 2990.5,11.1667 2990.5,11.8333 2990.5,12.5C 2968.61,23.4097 2945.61,31.243 2921.5,36C 2908.89,38.9222 2896.22,41.5889 2883.5,44C 2848.44,49.2945 2813.44,54.9612 2778.5,61C 2764.64,63.5486 2750.97,66.8819 2737.5,71C 2726.23,77.8834 2715.4,85.3834 2705,93.5C 2705.55,98.0988 2703.72,101.265 2699.5,103C 2644.28,118.722 2588.61,132.722 2532.5,145C 2528.17,146.667 2525.17,149.667 2523.5,154C 2522.17,154.667 2520.83,155.333 2519.5,156C 2486.41,155.306 2453.75,158.639 2421.5,166C 2240.59,219.304 2058.92,269.971 1876.5,318C 1869.94,319.946 1863.94,322.946 1858.5,327C 1837.69,348.141 1816.53,368.974 1795,389.5C 1791.66,393.183 1789.66,397.516 1789,402.5C 1788.5,551.833 1788.33,701.166 1788.5,850.5C 1656.17,850.5 1523.83,850.5 1391.5,850.5C 1388.77,849.295 1386.1,847.795 1383.5,846C 1376.67,837.833 1369.17,830.333 1361,823.5C 1352.83,831.667 1344.67,839.833 1336.5,848C 1334.69,848.757 1333.02,849.59 1331.5,850.5C 1198.5,850.5 1065.5,850.5 932.5,850.5C 932.5,801.167 932.5,751.833 932.5,702.5C 784.846,701.344 637.179,701.177 489.5,702C 486.624,702.438 483.957,703.438 481.5,705C 434.5,752 387.5,799 340.5,846C 337.901,847.795 335.234,849.295 332.5,850.5C 255.5,850.5 178.5,850.5 101.5,850.5C 101.343,849.127 101.51,847.793 102,846.5C 145.861,802.972 189.361,759.139 232.5,715C 202.671,718.471 172.671,719.804 142.5,719C 113.097,718.1 84.4301,713.1 56.5,704C 24.5099,691.854 5.50991,669.02 -0.5,635.5C -0.5,628.167 -0.5,620.833 -0.5,613.5C 4.42992,591.973 13.9299,572.639 28,555.5C 58.098,519.393 93.598,489.893 134.5,467C 185.407,439.214 238.074,415.214 292.5,395C 356.407,370.142 421.407,348.475 487.5,330C 490.5,329.333 493.5,329.333 496.5,330C 496.167,330.333 495.833,330.667 495.5,331C 465.912,343.297 438.912,359.63 414.5,380C 403.378,389.439 394.545,400.606 388,413.5C 381.636,428.801 382.303,443.801 390,458.5C 402.631,481.886 421.798,496.719 447.5,503C 449,500.833 450.5,498.667 452,496.5C 610.167,338.333 768.333,180.167 926.5,22C 932.884,18.042 939.884,16.2087 947.5,16.5C 998.491,17.468 1049.49,17.8013 1100.5,17.5C 1100.33,112.834 1100.5,208.167 1101,303.5C 1194.5,210 1288,116.5 1381.5,23C 1385.18,19.6623 1389.52,17.6623 1394.5,17C 1525.83,16.8467 1657.17,17.0134 1788.5,17.5C 1788.33,64.1679 1788.5,110.835 1789,157.5C 1834.5,113.333 1879.33,68.5 1923.5,23C 1927.18,19.6623 1931.52,17.6623 1936.5,17C 2012.5,16.1667 2088.5,16.3334 2164.5,17.5C 2164.83,18.1667 2165.17,18.8333 2165.5,19.5C 2078.68,106.82 1991.68,193.986 1904.5,281C 2076.96,236.468 2249.29,191.134 2421.5,145C 2436.01,139.747 2450.01,133.413 2463.5,126C 2458.13,102.757 2449.29,80.9235 2437,60.5C 2436.67,54.4816 2437,48.4816 2438,42.5C 2444.34,38.8172 2450.68,35.1505 2457,31.5C 2493.07,52.4528 2529.24,73.2861 2565.5,94C 2571.27,95.9852 2576.94,95.6518 2582.5,93C 2605.83,83.6667 2629.17,74.3333 2652.5,65C 2677.17,52.3333 2701.83,39.6667 2726.5,27C 2747.17,17.5539 2768.5,9.88719 2790.5,4C 2801.55,1.74563 2812.55,0.245631 2823.5,-0.5 Z M 1620.5,26.5 C 1621.67,124.332 1621.83,222.332 1621,320.5C 1620.14,324.544 1618.48,328.211 1616,331.5C 1605.86,340.636 1596.03,350.136 1586.5,360C 1583.66,361.92 1580.66,363.587 1577.5,365C 1493.79,385.928 1409.79,405.594 1325.5,424C 1291.67,431.138 1257.67,437.304 1223.5,442.5C 1220.17,442.088 1217.17,440.922 1214.5,439C 1212.79,437.867 1212.29,436.367 1213,434.5C 1349.03,298.632 1484.87,162.632 1620.5,26.5 Z M 930.5,257.5 C 931.499,336.332 931.833,415.332 931.5,494.5C 843.969,508.782 755.969,517.782 667.5,521.5C 753.853,432.147 841.52,344.147 930.5,257.5 Z M 1529.5,410.5 C 1530.55,410.351 1531.55,410.517 1532.5,411C 1475.33,468.167 1418.17,525.333 1361,582.5C 1327.32,548.986 1293.82,515.32 1260.5,481.5C 1350.39,458.28 1440.05,434.613 1529.5,410.5 Z M 1101.5,565.5 C 1149.15,609.812 1195.15,655.812 1239.5,703.5C 1193.85,749.653 1148.01,795.653 1102,841.5C 1101.5,749.501 1101.33,657.501 1101.5,565.5 Z M 1618.5,566.5 C 1620.48,657.497 1621.31,748.83 1621,840.5C 1574.99,794.653 1529.15,748.653 1483.5,702.5C 1527.85,656.48 1572.85,611.147 1618.5,566.5 Z"/></g>
</svg>
